<?xml version="1.0" encoding="utf-8"?>
<!-- Generator: Adobe Illustrator 18.0.0, SVG Export Plug-In . SVG Version: 6.00 Build 0)  -->
<!DOCTYPE svg PUBLIC "-//W3C//DTD SVG 1.1//EN" "http://www.w3.org/Graphics/SVG/1.1/DTD/svg11.dtd">
<svg version="1.1" id="Layer_1" xmlns="http://www.w3.org/2000/svg" xmlns:xlink="http://www.w3.org/1999/xlink" x="0px" y="0px"
	 viewBox="404.25 1222.854 32 32" enable-background="new 404.25 1222.854 32 32" xml:space="preserve">
<path fill-rule="evenodd" clip-rule="evenodd" d="M420.249,1226.708c-6.876,0-12.453,5.576-12.453,12.454
	c0,5.502,3.568,10.169,8.517,11.816c0.623,0.114,0.85-0.27,0.85-0.6c0-0.296-0.011-1.079-0.017-2.118
	c-3.464,0.753-4.195-1.669-4.195-1.669c-0.566-1.439-1.383-1.822-1.383-1.822c-1.131-0.773,0.086-0.757,0.086-0.757
	c1.25,0.088,1.908,1.283,1.908,1.283c1.111,1.903,2.915,1.354,3.624,1.035c0.113-0.805,0.435-1.354,0.791-1.665
	c-2.765-0.314-5.673-1.383-5.673-6.155c0-1.359,0.485-2.471,1.282-3.342c-0.128-0.315-0.555-1.581,0.122-3.296
	c0,0,1.046-0.335,3.425,1.277c0.993-0.276,2.059-0.414,3.118-0.419c1.058,0.005,2.123,0.143,3.118,0.419
	c2.378-1.611,3.421-1.277,3.421-1.277c0.679,1.714,0.252,2.981,0.124,3.296c0.798,0.87,1.28,1.982,1.28,3.342
	c0,4.784-2.912,5.837-5.686,6.145c0.447,0.385,0.845,1.145,0.845,2.306c0,1.665-0.015,3.008-0.015,3.416
	c0,0.333,0.224,0.72,0.856,0.599c4.944-1.65,8.509-6.315,8.509-11.815C432.703,1232.284,427.127,1226.708,420.249,1226.708z"/>
</svg>
