<?xml version="1.0" encoding="utf-8"?>
<!-- Generator: Adobe Illustrator 18.0.0, SVG Export Plug-In . SVG Version: 6.00 Build 0)  -->
<!DOCTYPE svg PUBLIC "-//W3C//DTD SVG 1.1//EN" "http://www.w3.org/Graphics/SVG/1.1/DTD/svg11.dtd">
<svg version="1.1" id="Layer_1" xmlns="http://www.w3.org/2000/svg" xmlns:xlink="http://www.w3.org/1999/xlink" x="0px" y="0px"
	 viewBox="682.886 1222.854 32 32" enable-background="new 682.886 1222.854 32 32" xml:space="preserve">
<g id="G_x2B_">
	<g>
		<path fill-rule="evenodd" clip-rule="evenodd" d="M693.17,1238.601v4.057h5.468c-0.819,2.156-2.902,3.688-5.345,3.688
			c-3.157,0-5.717-2.559-5.717-5.717c0-3.157,2.559-5.717,5.717-5.717c1.407,0,2.694,0.509,3.69,1.352l2.862-2.803
			c-1.727-1.58-4.026-2.545-6.552-2.545c-5.364,0-9.712,4.348-9.712,9.712s4.348,9.712,9.712,9.712s9.712-4.348,9.712-9.712
			c0-0.696-0.074-1.374-0.213-2.028H693.17z M710.811,1238.908v-3.381h-2.459v3.381h-3.381v2.459h3.381v3.381h2.459v-3.381h3.381
			v-2.459H710.811z"/>
	</g>
</g>
</svg>
