<?xml version="1.0" encoding="utf-8"?>
<!-- Generator: Adobe Illustrator 18.0.0, SVG Export Plug-In . SVG Version: 6.00 Build 0)  -->
<!DOCTYPE svg PUBLIC "-//W3C//DTD SVG 1.1//EN" "http://www.w3.org/Graphics/SVG/1.1/DTD/svg11.dtd">
<svg version="1.1" id="Layer_1" xmlns="http://www.w3.org/2000/svg" xmlns:xlink="http://www.w3.org/1999/xlink" x="0px" y="0px"
	 viewBox="585.292 1222.854 32 32" enable-background="new 585.292 1222.854 32 32" xml:space="preserve">
<g>
	<path d="M604.589,1248.541c1.344,1.085,2.896,1.626,4.655,1.626c2.132,0,3.789-0.642,4.972-1.928
		c0.762-0.809,1.189-1.605,1.282-2.389h-3.528c-0.205,0.388-0.443,0.69-0.711,0.908c-0.492,0.405-1.132,0.607-1.919,0.607
		c-0.743,0-1.377-0.166-1.904-0.497c-0.868-0.534-1.329-1.463-1.382-2.789h9.625c0.017-1.141-0.021-2.015-0.114-2.622
		c-0.161-1.036-0.512-1.948-1.053-2.732c-0.599-0.89-1.361-1.543-2.284-1.955c-0.92-0.412-1.957-0.619-3.108-0.619
		c-1.936,0-3.511,0.611-4.725,1.833c-1.214,1.22-1.821,2.976-1.821,5.266C602.572,1245.693,603.245,1247.456,604.589,1248.541z
		 M607.057,1239.755c0.49-0.502,1.176-0.754,2.062-0.754c0.816,0,1.5,0.238,2.051,0.711c0.551,0.475,0.858,1.172,0.92,2.089h-5.953
		C606.262,1240.94,606.569,1240.259,607.057,1239.755z"/>
	<path d="M597.482,1249.475c0.775-0.161,1.449-0.459,2.019-0.897c0.505-0.38,0.928-0.849,1.266-1.406
		c0.53-0.842,0.795-1.791,0.795-2.851c0-1.026-0.232-1.899-0.696-2.618c-0.465-0.719-1.153-1.245-2.065-1.577
		c0.6-0.307,1.055-0.646,1.364-1.018c0.551-0.662,0.828-1.54,0.828-2.631c0-1.059-0.274-1.968-0.821-2.728
		c-0.909-1.236-2.453-1.87-4.631-1.903h-8.638v17.872h8.054C595.863,1249.718,596.706,1249.637,597.482,1249.475z M590.467,1234.95
		h3.888c0.856,0,1.56,0.093,2.112,0.279c0.641,0.266,0.961,0.816,0.961,1.649c0,0.752-0.243,1.275-0.727,1.57
		c-0.483,0.295-1.113,0.443-1.89,0.443h-4.344V1234.95z M590.467,1246.614v-4.764h4.399c0.769,0.008,1.363,0.108,1.787,0.303
		c0.758,0.347,1.138,0.985,1.138,1.915c0,1.099-0.392,1.843-1.175,2.232c-0.431,0.21-1.035,0.315-1.809,0.315H590.467z"/>
	<rect x="605.011" y="1232.873" width="7.766" height="1.804"/>
</g>
</svg>
